<svg width="32px" height="37px" viewBox="0 0 32 37" version="1.1" xmlns="http://www.w3.org/2000/svg" xmlns:xlink="http://www.w3.org/1999/xlink">
    <!-- Generator: Sketch 49.1 (51147) - http://www.bohemiancoding.com/sketch -->
    <desc>Created with Sketch.</desc>
    <defs></defs>
    <g id="General" stroke="none" stroke-width="1" fill="none" fill-rule="evenodd">
        <g id="General---Logged-Out" transform="translate(-712.000000, -301.000000)" fill="#0B74DE">
            <path d="M734.5,307.296875 C737.171888,308.562506 739.339835,310.460925 741.003906,312.992188 C742.667977,315.52345 743.5,318.359359 743.5,321.5 C743.5,323.703136 743.089848,325.753897 742.269531,327.652344 C741.449215,329.550791 740.324226,331.214837 738.894531,332.644531 C737.464837,334.074226 735.789072,335.199215 733.867188,336.019531 C731.945303,336.839848 729.906261,337.25 727.75,337.25 C725.546864,337.25 723.496103,336.839848 721.597656,336.019531 C719.699209,335.199215 718.035163,334.074226 716.605469,332.644531 C715.175774,331.214837 714.050785,329.550791 713.230469,327.652344 C712.410152,325.753897 712,323.703136 712,321.5 C712,318.359359 712.832023,315.52345 714.496094,312.992188 C716.160165,310.460925 718.328112,308.562506 721,307.296875 L721,309.828125 C718.984365,311.000006 717.355475,312.605459 716.113281,314.644531 C714.871088,316.683604 714.25,318.968737 714.25,321.5 C714.25,323.375009 714.601559,325.132804 715.304688,326.773438 C716.007816,328.414071 716.968744,329.843744 718.1875,331.0625 C719.406256,332.281256 720.835929,333.242184 722.476562,333.945312 C724.117196,334.648441 725.874991,335 727.75,335 C729.625009,335 731.382804,334.648441 733.023438,333.945312 C734.664071,333.242184 736.093744,332.281256 737.3125,331.0625 C738.531256,329.843744 739.492184,328.414071 740.195312,326.773438 C740.898441,325.132804 741.25,323.375009 741.25,321.5 C741.25,318.968737 740.628912,316.683604 739.386719,314.644531 C738.144525,312.605459 736.515635,311.000006 734.5,309.828125 L734.5,307.296875 Z M727.75,321.5 C727.093747,321.5 726.55469,321.289065 726.132812,320.867188 C725.710935,320.44531 725.5,319.906253 725.5,319.25 L725.5,303.5 C725.5,302.890622 725.710935,302.363283 726.132812,301.917969 C726.55469,301.472654 727.093747,301.25 727.75,301.25 C728.359378,301.25 728.886717,301.472654 729.332031,301.917969 C729.777346,302.363283 730,302.890622 730,303.5 L730,319.25 C730,319.906253 729.777346,320.44531 729.332031,320.867188 C728.886717,321.289065 728.359378,321.5 727.75,321.5 Z" id=""></path>
        </g>
    </g>
</svg>
